<mxfile host="Electron" modified="2023-06-01T10:16:13.452Z" agent="Mozilla/5.0 (Windows NT 10.0; Win64; x64) AppleWebKit/537.36 (KHTML, like Gecko) draw.io/21.2.8 Chrome/112.0.5615.165 Electron/24.2.0 Safari/537.36" etag="A4zhbSDuAdoCpHroeF_t" version="21.2.8" type="device">
  <diagram name="Страница 1" id="RPjq0SuhUwtNoFHaoSUe">
    <mxGraphModel dx="806" dy="902" grid="1" gridSize="10" guides="1" tooltips="1" connect="1" arrows="1" fold="1" page="1" pageScale="1" pageWidth="827" pageHeight="1169" math="0" shadow="0">
      <root>
        <mxCell id="0" />
        <mxCell id="1" parent="0" />
        <mxCell id="hwzN3IUvjzmPeqP-Gvli-3" style="edgeStyle=orthogonalEdgeStyle;rounded=0;orthogonalLoop=1;jettySize=auto;html=1;endArrow=none;endFill=0;" parent="1" source="hwzN3IUvjzmPeqP-Gvli-1" edge="1">
          <mxGeometry relative="1" as="geometry">
            <mxPoint x="60" y="720" as="targetPoint" />
          </mxGeometry>
        </mxCell>
        <mxCell id="hwzN3IUvjzmPeqP-Gvli-1" value="&lt;font style=&quot;font-size: 16px;&quot;&gt;Абонент (UE)&lt;/font&gt;" style="rounded=1;whiteSpace=wrap;html=1;" parent="1" vertex="1">
          <mxGeometry y="300" width="120" height="60" as="geometry" />
        </mxCell>
        <mxCell id="hwzN3IUvjzmPeqP-Gvli-4" style="edgeStyle=orthogonalEdgeStyle;rounded=0;orthogonalLoop=1;jettySize=auto;html=1;endArrow=none;endFill=0;" parent="1" source="hwzN3IUvjzmPeqP-Gvli-2" edge="1">
          <mxGeometry relative="1" as="geometry">
            <mxPoint x="550" y="720" as="targetPoint" />
          </mxGeometry>
        </mxCell>
        <mxCell id="hwzN3IUvjzmPeqP-Gvli-2" value="&lt;font style=&quot;font-size: 16px;&quot;&gt;Базовая станция (eNodeB)&lt;/font&gt;" style="rounded=1;whiteSpace=wrap;html=1;" parent="1" vertex="1">
          <mxGeometry x="490" y="300" width="120" height="60" as="geometry" />
        </mxCell>
        <mxCell id="hwzN3IUvjzmPeqP-Gvli-5" value="" style="endArrow=classic;html=1;rounded=0;" parent="1" edge="1">
          <mxGeometry width="50" height="50" relative="1" as="geometry">
            <mxPoint x="550" y="400" as="sourcePoint" />
            <mxPoint x="60" y="400" as="targetPoint" />
          </mxGeometry>
        </mxCell>
        <mxCell id="hwzN3IUvjzmPeqP-Gvli-6" value="&lt;font style=&quot;font-size: 20px;&quot;&gt;0&lt;/font&gt;" style="ellipse;whiteSpace=wrap;html=1;aspect=fixed;" parent="1" vertex="1">
          <mxGeometry y="380" width="40" height="40" as="geometry" />
        </mxCell>
        <mxCell id="hwzN3IUvjzmPeqP-Gvli-11" value="" style="endArrow=none;html=1;rounded=0;startArrow=classic;startFill=1;endFill=0;" parent="1" edge="1">
          <mxGeometry width="50" height="50" relative="1" as="geometry">
            <mxPoint x="550" y="470" as="sourcePoint" />
            <mxPoint x="60" y="470" as="targetPoint" />
          </mxGeometry>
        </mxCell>
        <mxCell id="hwzN3IUvjzmPeqP-Gvli-12" value="&lt;font style=&quot;font-size: 20px;&quot;&gt;1&lt;/font&gt;" style="ellipse;whiteSpace=wrap;html=1;aspect=fixed;" parent="1" vertex="1">
          <mxGeometry y="450" width="40" height="40" as="geometry" />
        </mxCell>
        <mxCell id="hwzN3IUvjzmPeqP-Gvli-13" value="" style="endArrow=classic;html=1;rounded=0;" parent="1" edge="1">
          <mxGeometry width="50" height="50" relative="1" as="geometry">
            <mxPoint x="550" y="540" as="sourcePoint" />
            <mxPoint x="60" y="540" as="targetPoint" />
          </mxGeometry>
        </mxCell>
        <mxCell id="hwzN3IUvjzmPeqP-Gvli-14" value="&lt;font style=&quot;font-size: 20px;&quot;&gt;2&lt;/font&gt;" style="ellipse;whiteSpace=wrap;html=1;aspect=fixed;" parent="1" vertex="1">
          <mxGeometry y="520" width="40" height="40" as="geometry" />
        </mxCell>
        <mxCell id="hwzN3IUvjzmPeqP-Gvli-15" value="" style="endArrow=none;html=1;rounded=0;endFill=0;startArrow=classic;startFill=1;" parent="1" edge="1">
          <mxGeometry width="50" height="50" relative="1" as="geometry">
            <mxPoint x="550" y="610" as="sourcePoint" />
            <mxPoint x="60" y="610" as="targetPoint" />
          </mxGeometry>
        </mxCell>
        <mxCell id="hwzN3IUvjzmPeqP-Gvli-16" value="&lt;font style=&quot;font-size: 20px;&quot;&gt;3&lt;/font&gt;" style="ellipse;whiteSpace=wrap;html=1;aspect=fixed;" parent="1" vertex="1">
          <mxGeometry y="590" width="40" height="40" as="geometry" />
        </mxCell>
        <mxCell id="hwzN3IUvjzmPeqP-Gvli-17" value="" style="endArrow=classic;html=1;rounded=0;" parent="1" edge="1">
          <mxGeometry width="50" height="50" relative="1" as="geometry">
            <mxPoint x="550" y="680" as="sourcePoint" />
            <mxPoint x="60" y="680" as="targetPoint" />
          </mxGeometry>
        </mxCell>
        <mxCell id="hwzN3IUvjzmPeqP-Gvli-18" value="&lt;font style=&quot;font-size: 20px;&quot;&gt;4&lt;/font&gt;" style="ellipse;whiteSpace=wrap;html=1;aspect=fixed;" parent="1" vertex="1">
          <mxGeometry y="660" width="40" height="40" as="geometry" />
        </mxCell>
        <mxCell id="hwzN3IUvjzmPeqP-Gvli-21" value="&lt;font style=&quot;font-size: 14px;&quot;&gt;Широковещвтельное сообщение с информацией о &lt;br&gt;наборе преамбул и ресурсах для их передачи&lt;/font&gt;" style="text;html=1;align=center;verticalAlign=middle;resizable=0;points=[];autosize=1;strokeColor=none;fillColor=none;" parent="1" vertex="1">
          <mxGeometry x="135" y="355" width="350" height="50" as="geometry" />
        </mxCell>
        <mxCell id="hwzN3IUvjzmPeqP-Gvli-22" value="&lt;span style=&quot;font-size: 14px;&quot;&gt;Передача преамбулы&lt;/span&gt;" style="text;html=1;align=center;verticalAlign=middle;resizable=0;points=[];autosize=1;strokeColor=none;fillColor=none;" parent="1" vertex="1">
          <mxGeometry x="230" y="430" width="160" height="30" as="geometry" />
        </mxCell>
        <mxCell id="hwzN3IUvjzmPeqP-Gvli-23" value="&lt;span style=&quot;font-size: 14px;&quot;&gt;Ответ произвольного доступа&lt;/span&gt;" style="text;html=1;align=center;verticalAlign=middle;resizable=0;points=[];autosize=1;strokeColor=none;fillColor=none;" parent="1" vertex="1">
          <mxGeometry x="200" y="500" width="220" height="30" as="geometry" />
        </mxCell>
        <mxCell id="hwzN3IUvjzmPeqP-Gvli-24" value="&lt;span style=&quot;font-size: 14px;&quot;&gt;Запрос на подключение&lt;/span&gt;" style="text;html=1;align=center;verticalAlign=middle;resizable=0;points=[];autosize=1;strokeColor=none;fillColor=none;" parent="1" vertex="1">
          <mxGeometry x="220" y="570" width="180" height="30" as="geometry" />
        </mxCell>
        <mxCell id="hwzN3IUvjzmPeqP-Gvli-25" value="&lt;span style=&quot;font-size: 14px;&quot;&gt;Подтверждение и разрешение конфликтов&lt;/span&gt;" style="text;html=1;align=center;verticalAlign=middle;resizable=0;points=[];autosize=1;strokeColor=none;fillColor=none;" parent="1" vertex="1">
          <mxGeometry x="160" y="640" width="300" height="30" as="geometry" />
        </mxCell>
        <mxCell id="kZo5mt_bqfhEYmRzm-1n-1" value="&lt;span style=&quot;color: rgb(0, 0, 0); font-family: Helvetica; font-size: 14px; font-style: normal; font-variant-ligatures: normal; font-variant-caps: normal; font-weight: 400; letter-spacing: normal; orphans: 2; text-align: center; text-indent: 0px; text-transform: none; widows: 2; word-spacing: 0px; -webkit-text-stroke-width: 0px; background-color: rgb(251, 251, 251); text-decoration-thickness: initial; text-decoration-style: initial; text-decoration-color: initial; float: none; display: inline !important;&quot;&gt;Конфликт может произойти здесь, но не обнаружится&lt;/span&gt;" style="text;whiteSpace=wrap;html=1;" vertex="1" parent="1">
          <mxGeometry x="565" y="435" width="150" height="70" as="geometry" />
        </mxCell>
        <mxCell id="kZo5mt_bqfhEYmRzm-1n-2" value="&lt;span style=&quot;color: rgb(0, 0, 0); font-family: Helvetica; font-size: 14px; font-style: normal; font-variant-ligatures: normal; font-variant-caps: normal; font-weight: 400; letter-spacing: normal; orphans: 2; text-align: center; text-indent: 0px; text-transform: none; widows: 2; word-spacing: 0px; -webkit-text-stroke-width: 0px; background-color: rgb(251, 251, 251); text-decoration-thickness: initial; text-decoration-style: initial; text-decoration-color: initial; float: none; display: inline !important;&quot;&gt;Обнаружение конфликта&lt;/span&gt;" style="text;whiteSpace=wrap;html=1;" vertex="1" parent="1">
          <mxGeometry x="565" y="585" width="100" height="40" as="geometry" />
        </mxCell>
        <mxCell id="kZo5mt_bqfhEYmRzm-1n-3" value="&lt;span style=&quot;color: rgb(0, 0, 0); font-family: Helvetica; font-size: 14px; font-style: normal; font-variant-ligatures: normal; font-variant-caps: normal; font-weight: 400; letter-spacing: normal; orphans: 2; text-align: center; text-indent: 0px; text-transform: none; widows: 2; word-spacing: 0px; -webkit-text-stroke-width: 0px; background-color: rgb(251, 251, 251); text-decoration-thickness: initial; text-decoration-style: initial; text-decoration-color: initial; float: none; display: inline !important;&quot;&gt;Уведомление о конфликте&lt;/span&gt;" style="text;whiteSpace=wrap;html=1;" vertex="1" parent="1">
          <mxGeometry x="565" y="655" width="100" height="50" as="geometry" />
        </mxCell>
      </root>
    </mxGraphModel>
  </diagram>
</mxfile>
